<svg xmlns="http://www.w3.org/2000/svg" viewBox="0 0 128 128" role="img" aria-label="X Media Downloader icon">
  <defs>
    <linearGradient id="bg" x1="0" x2="1" y1="0" y2="1">
      <stop offset="0%" stop-color="#111827" />
      <stop offset="100%" stop-color="#0f172a" />
    </linearGradient>
    <linearGradient id="accent" x1="0" x2="1" y1="0" y2="1">
      <stop offset="0%" stop-color="#38bdf8" />
      <stop offset="100%" stop-color="#22c55e" />
    </linearGradient>
  </defs>
  <rect x="8" y="8" width="112" height="112" rx="28" fill="url(#bg)"/>
  <path d="M64 24c4.4 0 8 3.6 8 8v34.7l11.4-11.3c3.1-3.1 8.2-3.1 11.3 0 3.1 3.1 3.1 8.2 0 11.3L69.7 91.7a8 8 0 0 1-11.3 0L33.3 66.7a8 8 0 0 1 11.3-11.3L56 66.7V32c0-4.4 3.6-8 8-8z" fill="url(#accent)"/>
  <path d="M36 92c4.4 0 8 3.6 8 8v2h40v-2c0-4.4 3.6-8 8-8s8 3.6 8 8v8c0 6.6-5.4 12-12 12H40c-6.6 0-12-5.4-12-12v-8c0-4.4 3.6-8 8-8z" fill="#e5f3ff" opacity="0.95"/>
</svg>
